<svg xmlns="http://www.w3.org/2000/svg" width="51" height="52" viewBox="0 0 51 52" fill="none">
  <path d="M25 0C29.7958 5.71895e-08 34.4982 1.32645 38.5871 3.83264C42.6759 6.33883 45.9919 9.9271 48.1684 14.2006C50.3448 18.4741 51.2969 23.2663 50.9193 28.0473C50.5416 32.8282 48.849 37.4115 46.0287 41.2903C43.2083 45.1692 39.3701 48.1924 34.9384 50.0256C30.5068 51.8587 25.6545 52.4305 20.9182 51.6776C16.1818 50.9247 11.746 48.8764 8.10131 45.7594C4.4566 42.6424 1.74502 38.578 0.266478 34.0158L7.79191 31.5769C8.82059 34.751 10.7071 37.5788 13.2429 39.7474C15.7787 41.916 18.8649 43.3411 22.1601 43.8649C25.4554 44.3887 28.8313 43.991 31.9146 42.7155C34.9978 41.4401 37.6682 39.3368 39.6305 36.6381C41.5927 33.9394 42.7703 30.7506 43.0331 27.4244C43.2958 24.0981 42.6334 20.764 41.1192 17.7907C39.6049 14.8174 37.2978 12.3209 34.4531 10.5773C31.6083 8.83363 28.3366 7.91077 25 7.91077V0Z" fill="#4BCB36"/>
</svg>