<svg xmlns="http://www.w3.org/2000/svg" width="32" height="32" viewBox="0 0 32 32" fill="none">
  <g clip-path="url(#clip0_1_15507)">
    <path d="M28.5875 26.859C34.0399 20.57 32.1428 10.7931 24.7273 6.9792C22.5857 2.83206 18.2571 -0.00976562 13.277 -0.00976562C6.17596 -0.00976562 0.39894 5.76762 0.39894 12.869C0.39894 15.9953 1.50559 18.9521 3.53371 21.2914L0.671994 24.1156C0.091991 24.6881 0.493771 25.6826 1.31226 25.6866L8.2231 25.7195C10.6046 29.1849 14.5388 31.3153 18.8442 31.3153C18.8531 31.3153 30.802 31.2541 30.809 31.2541C31.6247 31.2502 32.0311 30.2574 31.4492 29.6831L28.5875 26.859ZM5.46173 20.6707C3.38051 18.5856 2.23427 15.8149 2.23427 12.869C2.23427 6.77969 7.18803 1.82569 13.277 1.82569C19.3659 1.82569 24.3196 6.77969 24.3196 12.869C24.3196 18.7041 19.7021 23.9593 12.9189 23.9063L3.54227 23.8617L5.45683 21.9723C5.8189 21.6148 5.82105 21.0307 5.46173 20.6707ZM18.8442 29.4798C15.624 29.4798 12.6308 28.1039 10.5501 25.7305C14.0439 25.7535 13.1164 25.7477 13.277 25.7477C21.5611 25.7477 27.7468 17.9771 25.8002 9.86392C30.8762 14.0105 31.2919 21.5973 26.6595 26.2382C26.3001 26.5983 26.3023 27.1824 26.6644 27.5398L28.5789 29.4292C28.5716 29.4292 18.8513 29.4798 18.8442 29.4798Z" fill="white"/>
    <path d="M7.80145 10.146H18.8136C19.3204 10.146 19.7312 9.7351 19.7312 9.22827C19.7312 8.72144 19.3204 8.31055 18.8136 8.31055H7.80145C7.29462 8.31055 6.88379 8.72144 6.88379 9.22827C6.88379 9.7351 7.29469 10.146 7.80145 10.146Z" fill="white"/>
    <path d="M7.80145 13.8179H18.8136C19.3204 13.8179 19.7312 13.407 19.7312 12.9001C19.7312 12.3933 19.3204 11.9824 18.8136 11.9824H7.80145C7.29462 11.9824 6.88379 12.3933 6.88379 12.9001C6.88379 13.407 7.29469 13.8179 7.80145 13.8179Z" fill="white"/>
    <path d="M7.80145 17.4878H18.8136C19.3204 17.4878 19.7312 17.0769 19.7312 16.5701C19.7312 16.0632 19.3204 15.6523 18.8136 15.6523H7.80145C7.29462 15.6523 6.88379 16.0632 6.88379 16.5701C6.88379 17.0769 7.29469 17.4878 7.80145 17.4878Z" fill="white"/>
  </g>
  <defs>
    <clipPath id="clip0_1_15507">
      <rect width="31.325" height="31.325" fill="white" transform="translate(0.398438 -0.00976562)"/>
    </clipPath>
  </defs>
</svg>